HIERARCHY
ROOT Hips
{
    OFFSET 0.000000 0.000000 0.000000
    CHANNELS 6 Xposition Yposition Zposition Zrotation Xrotation Yrotation
    JOINT Spine
    {
        OFFSET -0.000000 0.081343 0.000000
        CHANNELS 3 Zrotation Xrotation Yrotation
        JOINT Spine1
        {
            OFFSET -0.000000 0.243280 0.000000
            CHANNELS 3 Zrotation Xrotation Yrotation
            JOINT Neck
            {
                OFFSET -0.000000 0.242281 0.022026
                CHANNELS 3 Zrotation Xrotation Yrotation
                JOINT Head
                {
                    OFFSET -0.000000 0.149025 -0.021289
                    CHANNELS 3 Zrotation Xrotation Yrotation
                    End Site
                    {
                        OFFSET -0.000000 0.198396 0.000000
                    }
                }
            }
            JOINT LeftShoulder
            {
                OFFSET 0.039707 0.224479 -0.002125
                CHANNELS 3 Zrotation Xrotation Yrotation
                JOINT LeftArm
                {
                    OFFSET 0.116942 0.000000 0.000000
                    CHANNELS 3 Zrotation Xrotation Yrotation
                    JOINT LeftForeArm
                    {
                        OFFSET 0.282002 0.000000 0.000000
                        CHANNELS 3 Zrotation Xrotation Yrotation
                        JOINT LeftHand
                        {
                            OFFSET 0.358743 0.000000 0.000000
                            CHANNELS 3 Zrotation Xrotation Yrotation
                            End Site
                            {
                                OFFSET 0.148797 0.000000 0.000000
                            }
                        }
                    }
                }
            }
            JOINT RightShoulder
            {
                OFFSET -0.039404 0.224479 -0.002125
                CHANNELS 3 Zrotation Xrotation Yrotation
                JOINT RightArm
                {
                    OFFSET -0.116942 0.000000 0.000000
                    CHANNELS 3 Zrotation Xrotation Yrotation
                    JOINT RightForeArm
                    {
                        OFFSET -0.282002 0.000000 0.000000
                        CHANNELS 3 Zrotation Xrotation Yrotation
                        JOINT RightHand
                        {
                            OFFSET -0.358743 0.000000 0.000000
                            CHANNELS 3 Zrotation Xrotation Yrotation
                            End Site
                            {
                                OFFSET -0.148797 0.000000 0.000000
                            }
                        }
                    }
                }
            }
        }
    }
    JOINT LeftUpLeg
    {
        OFFSET 0.099198 0.000000 0.000000
        CHANNELS 3 Zrotation Xrotation Yrotation
        JOINT LeftLeg
        {
            OFFSET -0.000000 -0.332973 0.000000
            CHANNELS 3 Zrotation Xrotation Yrotation
            JOINT LeftFoot
            {
                OFFSET -0.000000 -0.491254 0.000000
                CHANNELS 3 Zrotation Xrotation Yrotation
                JOINT LeftToeBase
                {
                    OFFSET -0.000000 -0.064479 0.148797
                    CHANNELS 3 Zrotation Xrotation Yrotation
                    End Site
                    {
                        OFFSET -0.000000 0.000000 0.039679
                    }
                }
            }
        }
    }
    JOINT RightUpLeg
    {
        OFFSET -0.099198 0.000000 0.000000
        CHANNELS 3 Zrotation Xrotation Yrotation
        JOINT RightLeg
        {
            OFFSET -0.000000 -0.332973 0.000000
            CHANNELS 3 Zrotation Xrotation Yrotation
            JOINT RightFoot
            {
                OFFSET -0.000000 -0.491254 0.000000
                CHANNELS 3 Zrotation Xrotation Yrotation
                JOINT RightToeBase
                {
                    OFFSET -0.000000 -0.064479 0.148797
                    CHANNELS 3 Zrotation Xrotation Yrotation
                    End Site
                    {
                        OFFSET -0.000000 0.000000 0.039679
                    }
                }
            }
        }
    }
}
MOTION
Frames:    14
Frame Time:    0.010000
0.348300    0.854082    0.430706    6.673351    6.251407    136.749451    2.089105    2.590967    2.210413    -1.237060    5.367743    0.808731    -7.677517    20.744688    -9.640107    14.745333    -6.188140    -7.494348    -7.504349    19.627462    4.927189    -45.518532    -2.375242    -14.398005    45.751728    -46.431389    -84.756874    65.948479    -11.186666    -8.027790    -1.937569    6.437610    16.778025    32.009007    15.832955    17.452698    -67.528900    -45.877266    50.875519    -30.689489    -16.396030    9.533792    19.191610    -12.119970    9.538504    -8.728966    27.720230    0.846005    -5.192837    -11.826539    17.202103    0.000000    0.000000    0.000000    -10.454123    -5.056182    -15.497230    3.219556    36.617313    -4.630521    7.134438    -16.388826    -9.756136    0.000000    0.000000    0.000000    
0.348393    0.854075    0.430491    6.698365    6.252774    136.765564    2.242597    2.602714    2.225448    -1.617203    5.394102    0.833034    -7.218019    20.553806    -9.653109    14.577901    -6.132812    -7.514343    -7.186881    19.283388    5.058786    -45.634438    -2.176615    -14.063097    45.047100    -46.211586    -85.705681    66.019630    -10.683535    -7.668132    -1.584861    6.314300    16.774828    31.602917    18.152618    17.670797    -71.366928    -45.985287    46.629780    -30.538221    -17.502029    9.299075    19.204498    -12.028062    9.539141    -8.697452    27.800171    0.810755    -3.282851    -10.665037    16.019602    0.000000    0.000000    0.000000    -10.434477    -5.017626    -15.491555    3.218388    36.611881    -4.650222    7.156641    -16.377884    -9.758925    0.000000    0.000000    0.000000    
0.348523    0.854100    0.430369    6.690634    6.257714    136.831284    2.300097    2.316510    2.508636    -1.584452    5.839512    0.930662    -7.298769    20.522383    -9.838449    14.799425    -6.275918    -7.647958    -7.143609    18.977989    4.483736    -45.526604    -2.326128    -13.905179    44.548763    -46.295765    -85.858353    65.425995    -11.318264    -7.798094    -1.537732    6.088158    16.589851    32.107567    15.083364    18.006454    -66.764053    -45.559654    51.435516    -29.977894    -16.126759    10.125203    19.179688    -12.036731    9.527404    -8.665573    27.790302    0.773139    -3.279896    -10.663899    15.998830    0.000000    0.000000    0.000000    -10.480630    -5.214244    -15.491674    3.223970    36.926201    -5.439742    7.461605    -16.099997    -9.057434    0.000000    0.000000    0.000000    
0.348649    0.854145    0.430248    6.677950    6.269895    136.904129    2.290592    2.317896    2.557764    -1.527396    5.778197    0.943230    -7.382461    20.525269    -9.867376    14.891562    -6.267371    -7.664804    -7.132767    18.724630    4.610770    -45.578316    -2.154149    -13.778213    45.548084    -46.076935    -85.225983    65.987556    -10.459289    -7.930876    -1.620710    6.124236    16.611208    31.935976    16.759722    18.205378    -69.809204    -45.664330    48.169582    -29.703201    -16.875381    9.973708    19.147827    -12.046937    9.490609    -8.653358    27.777809    0.735231    -3.266923    -10.646406    16.004297    0.000000    0.000000    0.000000    -10.489244    -5.169499    -15.514106    3.230934    36.902863    -5.487299    7.504316    -16.093304    -9.043411    0.000000    0.000000    0.000000    
0.348793    0.854172    0.430144    6.675875    6.270604    136.973999    2.296700    2.322225    2.606803    -1.484661    5.705994    0.956562    -7.415829    20.524788    -9.897965    14.931540    -6.247591    -7.692801    -7.151915    18.692854    4.603391    -45.498131    -2.200870    -13.784293    45.421509    -46.074894    -85.365288    66.864998    -10.172686    -7.314544    -1.670082    6.122495    16.632481    31.933399    16.824589    18.191957    -69.894493    -45.664703    48.076439    -29.587124    -16.900778    10.023269    19.139296    -12.059512    9.480354    -8.636197    27.773643    0.709126    -3.271964    -10.636993    15.968341    0.000000    0.000000    0.000000    -10.479256    -5.131049    -15.550812    3.229737    36.881332    -5.489488    7.491037    -16.110159    -9.073577    0.000000    0.000000    0.000000    
0.348939    0.854191    0.430023    6.674378    6.285642    137.044586    2.297698    2.344614    2.653575    -1.442362    5.615902    0.969031    -7.499889    20.558828    -9.922029    15.049732    -6.241937    -7.701378    -7.180389    18.676508    4.595508    -45.453781    -2.296620    -13.691355    43.666180    -45.855377    -86.719299    66.072456    -10.433683    -6.746300    -1.725250    6.135417    16.660683    31.947601    16.805176    18.175913    -69.864403    -45.663258    48.122723    -29.620935    -16.885143    10.035336    19.118607    -12.053822    9.457740    -8.623241    27.756264    0.708384    -3.270074    -10.629416    15.920113    0.000000    0.000000    0.000000    -10.494368    -5.092925    -15.717594    3.151460    36.896912    -5.314366    7.473894    -16.119667    -9.120979    0.000000    0.000000    0.000000    
0.349075    0.854197    0.429911    6.673919    6.291653    137.118103    2.301194    2.367180    2.697222    -1.396301    5.522103    0.980403    -7.562778    20.568035    -9.953017    15.129189    -6.205856    -7.726122    -7.241268    18.683023    4.623668    -45.436909    -2.331229    -13.720794    45.389423    -45.992504    -85.402206    67.001892    -10.097909    -7.348925    -1.780687    6.139366    16.675280    31.877163    16.097273    17.297682    -67.826096    -45.879833    50.543499    -30.389273    -16.488033    9.689701    19.107969    -12.113022    9.441305    -8.644066    27.650581    0.701645    -5.201031    -11.845055    17.077732    0.000000    0.000000    0.000000    -10.494883    -5.044564    -15.724499    3.182504    36.875751    -5.367902    7.544815    -16.106998    -9.137769    0.000000    0.000000    0.000000    
0.348457    0.854327    0.430107    6.594526    6.297587    137.177948    2.318182    2.489588    2.751876    -1.413627    5.282392    0.997348    -7.648018    20.641573    -10.098396    15.267684    -6.253469    -7.853929    -7.292843    18.678490    4.619449    -45.406334    -2.292703    -13.685416    45.521179    -46.049774    -85.258560    67.138626    -10.109633    -7.279888    -1.858530    6.130436    16.698837    31.911215    15.976525    17.282465    -67.593102    -45.856514    50.808292    -30.382923    -16.415302    9.771854    18.958426    -12.245573    9.372938    -8.567535    27.662001    0.814326    -5.187541    -11.684118    17.011915    0.000000    0.000000    0.000000    -10.588296    -5.156715    -15.584596    3.329990    36.917446    -5.643941    7.507964    -16.045607    -9.142560    0.000000    0.000000    0.000000    
0.348582    0.854325    0.430012    6.585590    6.304021    137.251740    2.299662    2.799413    2.988711    -1.294882    4.736486    1.066562    -7.754017    20.669870    -10.250216    15.376100    -6.076250    -8.021437    -7.294110    18.929207    4.487296    -45.364067    -2.157027    -13.747920    45.659836    -46.185410    -85.073456    67.213646    -10.223057    -7.160349    -2.030592    6.339166    16.213511    31.991886    15.848442    17.493792    -67.239426    -45.861195    51.308731    -30.418581    -16.249487    9.778432    18.929211    -12.278901    9.364318    -8.554631    27.634687    0.811702    -4.432096    -11.646631    16.884390    0.000000    0.000000    0.000000    -10.600861    -5.115901    -15.569271    3.387252    36.900894    -5.686553    7.526042    -16.068285    -9.188239    0.000000    0.000000    0.000000    
0.348708    0.854338    0.429901    6.582092    6.318405    137.326904    2.327019    2.517746    2.810630    -1.358748    5.130707    1.012877    -7.757861    20.584488    -10.019248    15.348894    -6.156644    -7.768110    -7.340853    18.723700    4.604672    -45.388760    -2.387789    -13.627008    45.555302    -46.130764    -85.221550    67.289841    -10.169780    -7.190187    -1.925636    6.107834    16.761469    31.889278    15.938591    17.299217    -67.473206    -45.812607    50.929729    -30.390629    -16.346401    9.806742    18.904657    -12.282000    9.352062    -8.528818    27.626991    0.781667    -4.439564    -11.639190    16.830076    0.000000    0.000000    0.000000    -10.615250    -5.091733    -15.774376    3.272727    36.930923    -5.460542    7.529895    -16.071615    -9.241414    0.000000    0.000000    0.000000    
0.348830    0.854331    0.429809    6.578730    6.328445    137.399734    2.332331    2.535316    2.841081    -1.331556    5.059142    1.021116    -7.799845    20.560751    -10.028924    15.410049    -6.123189    -7.770567    -7.368948    18.759861    4.605168    -45.342033    -2.457960    -13.672079    45.302456    -46.214161    -85.362061    67.506874    -10.744599    -7.562978    -1.971764    6.096627    16.800442    31.904755    15.976112    17.315783    -67.563896    -45.794872    50.840042    -30.318827    -16.333597    9.830360    18.899921    -12.276383    9.340445    -8.508772    27.649326    0.755011    -5.154549    -11.644636    16.880283    0.000000    0.000000    0.000000    -10.625428    -5.057391    -15.772463    3.320319    36.934364    -5.515910    7.560973    -16.080143    -9.283010    0.000000    0.000000    0.000000    
0.348952    0.854316    0.429713    6.575761    6.346001    137.476028    2.314713    2.562951    2.887747    -1.218014    4.975726    1.030847    -7.969153    20.574797    -10.054135    15.534423    -6.112411    -7.782186    -7.474614    18.758766    4.564807    -45.257877    -2.389869    -13.696162    45.508842    -46.442963    -84.987793    67.589233    -11.233358    -7.683361    -2.102684    6.131145    16.827158    31.953239    15.789698    17.322464    -67.245651    -45.823696    51.208767    -30.332155    -16.302069    9.890906    18.883224    -12.230949    9.297162    -8.476879    27.743877    0.702747    -3.261429    -10.473118    15.706274    0.000000    0.000000    0.000000    -10.634884    -5.019455    -15.779087    3.349238    36.935757    -5.567220    7.484313    -16.092943    -9.305665    0.000000    0.000000    0.000000    
0.349061    0.854287    0.429629    6.566034    6.355091    137.550110    2.320252    2.584227    2.922944    -1.188921    4.893531    1.040640    -8.004531    20.573065    -10.078250    15.573510    -6.116186    -7.800622    -7.494987    18.750813    4.563537    -45.131123    -2.527091    -13.826881    46.501778    -46.201248    -84.026901    69.136986    -10.801281    -7.875916    -2.153423    6.119456    16.864830    31.964146    15.796478    17.300217    -67.176346    -45.856380    51.297321    -30.249086    -16.303556    9.852818    18.864183    -12.256908    9.287433    -8.458023    27.756813    0.672909    -3.263037    -10.470817    15.671287    0.000000    0.000000    0.000000    -10.651361    -4.991030    -15.759728    3.415042    36.936150    -5.658972    7.506870    -16.109234    -9.338881    0.000000    0.000000    0.000000    
0.349192    0.854263    0.429532    6.558517    6.373526    137.630554    2.318048    2.610599    2.955556    -1.168952    4.822287    1.050144    -8.036647    20.550304    -10.096854    15.641632    -6.097899    -7.808762    -7.507651    19.094913    4.657786    -45.203838    -2.767295    -14.055918    46.886688    -45.929714    -83.859016    69.060043    -9.674202    -7.274225    -2.179699    6.102786    16.886097    31.954935    15.901342    17.323387    -67.369194    -45.857941    51.102551    -30.164778    -16.320435    9.831003    18.841646    -12.277882    9.254789    -8.457248    27.771238    0.678228    -3.275144    -10.478657    15.643270    0.000000    0.000000    0.000000    -10.664570    -4.946976    -15.778836    3.434864    36.929310    -5.648063    7.516880    -16.129261    -9.392483    0.000000    0.000000    0.000000    
